<svg width="1141" height="968" viewBox="0 0 1141 968" fill="none" xmlns="http://www.w3.org/2000/svg">
<path class="animated-path path1" fill-rule="evenodd" clip-rule="evenodd" d="M734.968 169.361C734.226 169.555 732.681 170.17 731.534 170.728C728.857 172.031 725.743 175.057 724.377 177.683C722.668 180.97 722.634 181.201 720.248 205.155C715.659 251.25 712.662 277.583 709.446 300.081C701.132 358.244 690.765 389.997 673.257 410.917C670.212 414.555 664.884 419.781 661.259 422.686C658.377 424.995 651.489 429.658 648.259 431.486C632.358 440.484 610.829 447.346 581.173 452.867C553.844 457.956 520.296 462.098 453.869 468.583C433.448 470.577 432.997 470.647 429.708 472.342C427.1 473.687 424.07 476.809 422.756 479.507C421.404 482.282 421 484.004 421 486.988C421 489.971 421.404 491.693 422.756 494.469C424.193 497.419 427.124 500.35 430.076 501.79C431.222 502.349 432.823 502.968 433.632 503.167C434.442 503.365 442.113 504.197 450.68 505.016C512.823 510.953 544.259 514.599 570.37 518.895C636.406 529.76 666.225 545.538 684.371 579.215C693.853 596.811 700.842 620.722 706.632 655.376C710.92 681.039 714.512 711.004 720.487 770.96C721.573 781.85 722.58 791.343 722.726 792.055C722.871 792.766 723.471 794.342 724.059 795.557C725.831 799.217 728.125 801.553 731.657 803.293C734.295 804.592 736.052 805 739.015 805C741.999 805 743.721 804.596 746.497 803.244C749.446 801.807 752.378 798.876 753.817 795.924C754.376 794.778 754.997 793.177 755.196 792.368C755.394 791.558 756.28 783.17 757.164 773.726C763.542 705.541 767.575 671.74 772.646 643.97C777.466 617.577 783.119 598.477 790.65 583.14C794.492 575.315 797.87 569.894 802.649 563.885C804.98 560.954 810.926 554.847 813.828 552.403C833.353 535.961 862.088 525.884 911.453 518.167C937.369 514.115 966.738 510.775 1026 505.137C1035.31 504.252 1043.59 503.365 1044.4 503.167C1048.86 502.073 1053.31 498.52 1055.28 494.469C1056.78 491.382 1057.11 489.788 1056.97 486.26C1056.88 483.823 1056.74 482.989 1056.18 481.474C1054.3 476.414 1050.09 472.49 1044.89 470.948C1043.61 470.569 1038.95 470.029 1026.62 468.832C955.759 461.951 922.536 457.858 894.282 452.527C845.038 443.237 817.961 430.129 800.791 407.27C789.998 392.9 781.836 372.622 775.717 344.968C769.162 315.345 764.733 280.703 757.043 198.9C756.225 190.199 755.393 182.417 755.195 181.608C754.099 177.138 750.575 172.733 746.497 170.737C745.35 170.176 743.754 169.55 742.95 169.346C741.104 168.878 736.781 168.886 734.968 169.361Z" fill="black"/>
<path class="animated-path path2" fill-rule="evenodd" clip-rule="evenodd" d="M293.312 78.2406C292.817 78.3701 291.787 78.7802 291.023 79.1521C289.238 80.0206 287.162 82.0378 286.252 83.7888C285.112 85.9802 285.089 86.1339 283.499 102.103C280.439 132.833 278.441 150.388 276.297 165.387C270.755 204.163 263.843 225.332 252.171 239.278C250.141 241.703 246.589 245.188 244.173 247.124C242.251 248.664 237.659 251.772 235.506 252.99C224.905 258.989 210.552 263.564 190.782 267.245C172.563 270.638 150.197 273.398 105.912 277.722C92.2984 279.051 91.9977 279.098 89.8051 280.228C88.0665 281.124 86.0468 283.206 85.1708 285.004C84.2695 286.855 84 288.003 84 289.992C84 291.981 84.2695 293.129 85.1708 294.979C86.1286 296.946 88.0829 298.9 90.0504 299.86C90.8149 300.232 91.8819 300.646 92.4215 300.778C92.9612 300.91 98.0754 301.465 103.787 302.01C145.215 305.969 166.173 308.399 183.58 311.263C227.604 318.507 247.483 329.025 259.581 351.477C265.902 363.207 270.561 379.148 274.421 402.251C277.28 419.359 279.674 439.336 283.658 479.307C284.382 486.567 285.053 492.895 285.15 493.37C285.248 493.844 285.648 494.895 286.039 495.704C287.22 498.145 288.75 499.702 291.105 500.862C292.864 501.728 294.035 502 296.01 502C297.999 502 299.147 501.731 300.998 500.829C302.964 499.871 304.919 497.917 305.878 495.95C306.251 495.185 306.664 494.118 306.797 493.579C306.93 493.039 307.52 487.446 308.109 481.151C312.361 435.694 315.05 413.16 318.431 394.647C321.644 377.051 325.413 364.318 330.433 354.093C332.995 348.877 335.247 345.263 338.433 341.257C339.987 339.303 343.951 335.232 345.885 333.602C358.902 322.641 378.059 315.922 410.968 310.778C428.246 308.077 447.825 305.85 487.335 302.091C493.54 301.501 499.059 300.91 499.599 300.778C502.575 300.049 505.538 297.68 506.852 294.979C507.853 292.921 508.073 291.858 507.981 289.507C507.918 287.882 507.825 287.326 507.451 286.316C506.2 282.943 503.394 280.327 499.926 279.299C499.074 279.046 495.964 278.686 487.743 277.888C440.506 273.301 418.358 270.572 399.522 267.018C366.692 260.824 348.64 252.086 337.194 236.847C329.998 227.267 324.558 213.748 320.478 195.312C316.108 175.563 313.155 152.468 308.029 97.9336C307.483 92.1326 306.929 86.9448 306.797 86.4052C306.066 83.4251 303.716 80.4889 300.998 79.158C300.233 78.7837 299.169 78.3664 298.633 78.2306C297.403 77.9188 294.521 77.9242 293.312 78.2406Z" fill="black"/>
<path class="animated-path path3" fill-rule="evenodd" clip-rule="evenodd" d="M448.212 608.16C447.883 608.246 447.198 608.519 446.69 608.766C445.503 609.344 444.122 610.686 443.516 611.85C442.759 613.308 442.743 613.41 441.686 624.031C439.651 644.469 438.322 656.145 436.896 666.121C433.21 691.91 428.613 705.989 420.85 715.265C419.5 716.878 417.137 719.196 415.53 720.483C414.252 721.507 411.198 723.575 409.766 724.385C402.715 728.375 393.169 731.417 380.02 733.866C367.902 736.122 353.027 737.958 323.574 740.834C314.519 741.718 314.319 741.749 312.861 742.501C311.705 743.097 310.361 744.481 309.779 745.677C309.179 746.908 309 747.672 309 748.995C309 750.317 309.179 751.081 309.779 752.312C310.416 753.62 311.716 754.919 313.024 755.558C313.533 755.805 314.242 756.08 314.601 756.168C314.96 756.256 318.361 756.625 322.16 756.988C349.714 759.621 363.653 761.237 375.23 763.142C404.51 767.96 417.732 774.956 425.778 789.888C429.982 797.69 433.081 808.292 435.648 823.657C437.549 835.036 439.142 848.322 441.792 874.907C442.273 879.735 442.719 883.944 442.784 884.26C442.849 884.576 443.115 885.274 443.375 885.813C444.161 887.436 445.178 888.472 446.744 889.243C447.914 889.819 448.693 890 450.007 890C451.33 890 452.093 889.821 453.324 889.221C454.632 888.584 455.932 887.285 456.57 885.976C456.818 885.467 457.093 884.758 457.181 884.399C457.269 884.04 457.662 880.32 458.054 876.133C460.882 845.9 462.67 830.913 464.919 818.6C467.056 806.897 469.562 798.428 472.901 791.628C474.605 788.158 476.103 785.755 478.222 783.09C479.255 781.791 481.892 779.083 483.179 778C491.836 770.709 504.577 766.241 526.465 762.819C537.956 761.023 550.978 759.542 577.256 757.042C581.383 756.649 585.054 756.256 585.413 756.168C587.392 755.683 589.363 754.108 590.237 752.312C590.902 750.943 591.048 750.236 590.987 748.672C590.945 747.591 590.884 747.221 590.635 746.55C589.803 744.306 587.937 742.566 585.63 741.883C585.063 741.715 582.995 741.475 577.527 740.944C546.11 737.893 531.379 736.078 518.852 733.715C497.017 729.595 485.011 723.784 477.398 713.648C472.612 707.276 468.994 698.285 466.28 686.023C463.374 672.889 461.41 657.529 458 621.258C457.638 617.4 457.269 613.949 457.181 613.59C456.695 611.608 455.132 609.655 453.324 608.77C452.816 608.521 452.108 608.244 451.751 608.153C450.933 607.946 449.016 607.95 448.212 608.16Z" fill="black"/>
</svg>
